<?xml version="1.0" encoding="utf-8"?>
<!-- Generator: Adobe Illustrator 24.3.0, SVG Export Plug-In . SVG Version: 6.00 Build 0)  -->
<svg version="1.1" xmlns="http://www.w3.org/2000/svg" xmlns:xlink="http://www.w3.org/1999/xlink" x="0px" y="0px"
	 viewBox="0 0 16.36 16.65" style="enable-background:new 0 0 16.36 16.65;" xml:space="preserve">
<style type="text/css">
	.st0{fill:#F7F7F7;}
	.st1{opacity:0.3;fill:url(#SVGID_1_);}
	.st2{fill:#003159;}
	.st3{fill:#048ED6;}
	.st4{display:none;}
</style>
<g id="BACKGROUND">
	<rect id="XMLID_232_" x="-83" y="-258.58" class="st0" width="500" height="500"/>
</g>
<g id="OBJECTS">
	
		<radialGradient id="SVGID_1_" cx="164.6932" cy="107.917" r="88.327" gradientTransform="matrix(1 0 0 0.0897 0 58.9394)" gradientUnits="userSpaceOnUse">
		<stop  offset="5.800000e-07" style="stop-color:#606060"/>
		<stop  offset="0.9997" style="stop-color:#EAEDEE;stop-opacity:0"/>
	</radialGradient>
	<ellipse class="st1" cx="164.69" cy="68.62" rx="124.76" ry="10.99"/>
	<g>
		<g>
			<path class="st2" d="M8.21,13.88c-0.03-0.1-0.08-0.19-0.14-0.27c-0.17-0.23-0.44-0.38-0.74-0.38c-0.03,0-0.06,0-0.09,0
				c-0.08,0.01-0.15,0.02-0.22,0.05c-0.1,0.03-0.19,0.09-0.27,0.15c-0.07,0.05-0.13,0.12-0.18,0.19c-0.12,0.17-0.19,0.39-0.17,0.62
				c0.05,0.48,0.45,0.84,0.92,0.84c0.03,0,0.06,0,0.09,0c0.49-0.05,0.85-0.46,0.83-0.94c0-0.02,0-0.04,0-0.07
				C8.24,14,8.23,13.94,8.21,13.88z"/>
			<path class="st2" d="M13.11,12.95c-0.07-0.06-0.14-0.1-0.23-0.14c-0.1-0.04-0.21-0.07-0.33-0.07c-0.01,0-0.02,0-0.03,0
				c-0.03,0-0.06,0-0.09,0c-0.31,0.03-0.57,0.21-0.71,0.46c-0.06,0.1-0.09,0.2-0.11,0.32c-0.01,0.08-0.02,0.15-0.01,0.23
				c0,0.01,0,0.02,0,0.03c0.06,0.46,0.45,0.81,0.91,0.81c0.03,0,0.06,0,0.09,0c0.51-0.05,0.88-0.5,0.83-1.01
				C13.42,13.32,13.29,13.1,13.11,12.95z"/>
			<path class="st2" d="M4.81,8.22L4.65,6.53C4.57,5.71,3.88,5.1,3.08,5.1c-0.05,0-0.1,0-0.15,0.01L1.42,5.25
				c-0.4,0.04-0.69,0.39-0.66,0.79C0.8,6.42,1.11,6.71,1.48,6.71c0.02,0,0.05,0,0.07,0l1.51-0.14c0,0,0.01,0,0.01,0
				c0.06,0,0.12,0.05,0.12,0.11l0.16,1.69c0.03,0.31,0.08,0.62,0.16,0.91c0.09-0.09,0.2-0.16,0.32-0.2l1.05-0.32
				C4.85,8.57,4.83,8.4,4.81,8.22z"/>
			<path class="st2" d="M15.19,7.23L15.1,6.35c-0.04-0.38-0.35-0.66-0.72-0.66c-0.02,0-0.05,0-0.07,0c-0.4,0.04-0.69,0.39-0.66,0.79
				l0.08,0.87c0.01,0.12,0.02,0.25,0.02,0.37c0.02,1.54-0.76,2.94-1.97,3.77c-0.6,0.41-1.31,0.68-2.09,0.75
				c-0.14,0.01-0.29,0.02-0.43,0.02c-0.56,0-1.11-0.11-1.61-0.3c-0.48-0.19-0.92-0.45-1.31-0.79l-0.12,0.35
				c-0.11,0.31-0.39,0.52-0.73,0.52c-0.32,0-0.6-0.19-0.72-0.49l-0.26-0.67l-0.44-0.22c0.56,1,1.4,1.82,2.4,2.36
				c0.21-0.16,0.45-0.25,0.71-0.28c0.04,0,0.09-0.01,0.13-0.01h0c0.62,0,1.14,0.39,1.33,0.95c0.2,0.02,0.4,0.03,0.61,0.03
				c0.19,0,0.38-0.01,0.57-0.03c0.45-0.04,0.89-0.14,1.3-0.27c0.04-0.24,0.14-0.47,0.3-0.67c0.24-0.29,0.58-0.47,0.95-0.51
				c0.04,0,0.09-0.01,0.13-0.01h0c0.19,0,0.37,0.04,0.54,0.11C14.53,11.14,15.38,9.25,15.19,7.23z"/>
		</g>
		<g>
			<path class="st3" d="M13.24,7.25c-0.26-0.17-0.56-0.31-0.91-0.4c0.77-0.48,1.12-1.21,1.05-2.03c-0.13-1.34-1.36-2.21-3.8-1.98
				l-3.14,0.3C5.55,3.23,4.91,4.01,4.99,4.89l0.34,3.54C5.34,8.49,5.35,8.55,5.36,8.6l0.66-0.2C6.1,8.37,6.17,8.36,6.25,8.36
				c0.25,0,0.48,0.12,0.63,0.33c0.15,0.21,0.18,0.46,0.1,0.7l-0.45,1.3c0.02,0.02,0.05,0.04,0.07,0.07
				c0.74,0.67,1.69,1.03,2.68,1.03c0.13,0,0.26-0.01,0.38-0.02c1.06-0.1,2.02-0.61,2.7-1.44c0.68-0.82,1-1.86,0.9-2.92L13.24,7.25z
				 M7.97,5.11l1.39-0.13c0.67-0.06,1,0.13,1.04,0.57c0.04,0.43-0.24,0.69-0.91,0.75L8.1,6.42L7.97,5.11z M10.22,9.62l-1.8,0.17
				L8.29,8.4l1.8-0.17c0.66-0.06,1.01,0.15,1.05,0.6C11.18,9.29,10.88,9.56,10.22,9.62z"/>
			<path class="st3" d="M6.25,8.8c-0.03,0-0.07,0-0.1,0.02L3.97,9.49C3.69,9.58,3.66,9.96,3.92,10.1l0.84,0.42
				c0.07,0.04,0.13,0.1,0.16,0.17l0.28,0.71c0.05,0.14,0.18,0.21,0.31,0.21c0.13,0,0.26-0.07,0.31-0.22l0.75-2.16
				C6.64,9.02,6.47,8.8,6.25,8.8z"/>
		</g>
	</g>
</g>
<g id="TEXTS" class="st4">
	<text transform="matrix(1 0 0 1 34.7452 127.0582)" style="display:inline;"><tspan x="0" y="0" class="st2" style="font-family:'Montserrat-ExtraBold'; font-size:46px;">Book</tspan><tspan x="128.57" y="0" class="st3" style="font-family:'Montserrat-ExtraBold'; font-size:46px;">Store</tspan></text>
	
		<text transform="matrix(1 0 0 1 118.373 149.5955)" style="display:inline;fill:#048ED6; font-family:'OpenSans-BoldItalic'; font-size:20px;">Slogan Here</text>
</g>
</svg>
